<svg width="30" height="32" viewBox="0 0 30 32" fill="none" xmlns="http://www.w3.org/2000/svg">
<rect width="30" height="32" fill="#012A4A"/>
<path d="M21.648 24.056C21.888 24.424 22.136 24.72 22.392 24.944C22.648 25.168 22.976 25.36 23.376 25.52V26C22.256 25.952 21.008 25.928 19.632 25.928C18.576 25.928 17.56 25.952 16.584 26V25.52C17.032 25.488 17.352 25.44 17.544 25.376C17.752 25.312 17.856 25.2 17.856 25.04C17.856 24.912 17.768 24.712 17.592 24.44L14.112 18.8C13.792 18.288 13.52 17.944 13.296 17.768C13.088 17.592 12.8 17.488 12.432 17.456V23.456C12.432 24.064 12.472 24.504 12.552 24.776C12.648 25.048 12.816 25.232 13.056 25.328C13.296 25.424 13.688 25.488 14.232 25.52V26C13.368 25.952 12.16 25.928 10.608 25.928C8.896 25.928 7.632 25.952 6.816 26V25.52C7.344 25.488 7.728 25.424 7.968 25.328C8.224 25.232 8.392 25.048 8.472 24.776C8.568 24.504 8.616 24.064 8.616 23.456V11.552C8.616 10.944 8.568 10.504 8.472 10.232C8.392 9.96 8.224 9.776 7.968 9.68C7.728 9.584 7.344 9.52 6.816 9.488V9.008C7.632 9.056 8.896 9.08 10.608 9.08C12.16 9.08 13.368 9.056 14.232 9.008V9.488C13.688 9.52 13.296 9.584 13.056 9.68C12.816 9.776 12.648 9.96 12.552 10.232C12.472 10.504 12.432 10.944 12.432 11.552V16.952C13.072 16.92 13.656 16.728 14.184 16.376C14.712 16.024 15.312 15.464 15.984 14.696L17.4 12.992C18.136 12.144 18.504 11.4 18.504 10.76C18.504 10.376 18.344 10.072 18.024 9.848C17.72 9.624 17.288 9.496 16.728 9.464V9.008C17.896 9.056 19.08 9.08 20.28 9.08C21.208 9.08 21.96 9.056 22.536 9.008V9.464C21.256 9.768 20.096 10.536 19.056 11.768L16.056 15.344L21.648 24.056Z" fill="white"/>
</svg>
